<?xml version="1.0" standalone="no"?>
<!DOCTYPE svg PUBLIC "-//W3C//DTD SVG 20010904//EN"
 "http://www.w3.org/TR/2001/REC-SVG-20010904/DTD/svg10.dtd">
<svg version="1.0" xmlns="http://www.w3.org/2000/svg"
 width="225.000000pt" height="225.000000pt" viewBox="0 0 225.000000 225.000000"
 preserveAspectRatio="xMidYMid meet">

<g transform="translate(0.000000,225.000000) scale(0.100000,-0.100000)"
fill="#000000" stroke="none">
<path d="M1130 2108 c0 -25 2 -26 38 -21 58 9 74 22 27 23 -23 0 -46 5 -53 12
-9 9 -12 6 -12 -14z"/>
<path d="M1610 2105 c0 -27 6 -30 29 -16 12 8 12 12 -2 25 -22 22 -27 20 -27
-9z"/>
<path d="M1250 2110 c-13 -9 -13 -11 0 -20 22 -15 30 -12 30 10 0 22 -8 25
-30 10z"/>
<path d="M1695 2111 c-42 -7 -36 -12 33 -26 28 -6 32 -4 32 14 0 12 -6 20 -12
20 -7 -1 -31 -5 -53 -8z"/>
<path d="M720 1910 c0 -5 7 -10 15 -10 8 0 15 5 15 10 0 6 -7 10 -15 10 -8 0
-15 -4 -15 -10z"/>
<path d="M852 1909 c2 -6 8 -10 13 -10 5 0 11 4 13 10 2 6 -4 11 -13 11 -9 0
-15 -5 -13 -11z"/>
<path d="M1340 1894 c0 -5 19 -9 42 -9 33 0 43 -4 46 -17 2 -13 -3 -18 -17
-18 -14 0 -19 5 -15 15 4 10 0 15 -11 15 -12 0 -15 -5 -11 -16 5 -13 2 -15
-14 -11 -11 3 -18 1 -14 -4 11 -18 79 -10 97 11 20 24 21 26 5 29 -65 10 -108
12 -108 5z"/>
<path d="M1502 1893 c26 -3 38 -10 41 -24 4 -15 4 -14 3 3 -1 20 -7 23 -41 24
l-40 1 37 -4z"/>
<path d="M1490 1864 c0 -11 -6 -15 -20 -11 -11 3 -18 1 -14 -4 3 -5 22 -9 42
-8 20 0 31 3 24 6 -6 2 -10 8 -7 13 3 4 -2 10 -10 14 -9 3 -15 -1 -15 -10z"/>
<path d="M759 1818 c7 -10 26 -18 41 -18 15 0 34 8 41 18 11 14 11 15 -1 5 -8
-7 -26 -13 -40 -13 -14 0 -32 6 -40 13 -12 10 -12 9 -1 -5z"/>
<path d="M1400 1775 c6 -7 19 -15 28 -17 22 -6 62 8 62 22 0 6 -7 6 -20 -2
-15 -10 -27 -10 -51 -1 -25 10 -29 10 -19 -2z"/>
<path d="M1290 1688 c0 -6 -10 -22 -21 -34 -21 -22 -21 -25 -5 -58 27 -58 30
-93 16 -242 -9 -101 -10 -151 -3 -166 23 -52 175 -76 273 -43 73 24 77 37 57
193 -22 168 -22 190 7 247 24 47 24 48 5 68 -10 11 -19 27 -19 34 0 10 -5 11
-19 3 -11 -5 -29 -10 -41 -10 -12 0 -33 -9 -47 -20 -32 -25 -61 -25 -93 -3
-14 10 -33 16 -43 15 -10 -2 -29 4 -43 12 -17 12 -24 13 -24 4z m184 -233 c13
-36 -24 -61 -52 -33 -7 7 -8 17 -1 30 12 22 45 24 53 3z m-71 -80 c12 -8 17
-15 13 -15 -22 0 -46 35 -44 64 l1 31 4 -32 c3 -19 14 -39 26 -48z m94 18
c-37 -35 -55 -39 -44 -8 7 17 68 57 76 49 3 -2 -12 -21 -32 -41z"/>
<path d="M500 1640 c0 -32 14 -38 42 -16 16 12 16 14 -3 29 -28 25 -39 21 -39
-13z"/>
<path d="M643 1658 c-31 -15 -29 -31 6 -45 35 -13 41 -9 41 29 0 30 -11 34
-47 16z"/>
<path d="M900 1641 c0 -39 11 -44 49 -25 35 18 41 34 11 34 -11 0 -20 5 -20
10 0 6 -9 10 -20 10 -15 0 -20 -7 -20 -29z"/>
<path d="M1056 1655 c-17 -13 -17 -15 -3 -29 26 -26 47 -20 47 14 0 33 -14 38
-44 15z"/>
<path d="M630 827 c0 -258 -2 -306 -15 -317 -8 -7 -15 -20 -15 -30 0 -9 -18
-31 -40 -49 -75 -60 -38 -80 75 -40 33 11 61 22 62 23 6 5 56 326 77 486 16
130 25 175 29 150 3 -19 18 -125 32 -235 40 -300 58 -397 75 -405 31 -15 116
-40 137 -40 41 0 37 22 -10 63 -26 21 -47 47 -47 57 0 10 -5 20 -10 22 -8 2
-11 105 -10 312 l0 308 -22 -6 c-112 -30 -184 -30 -295 0 l-23 6 0 -305z m250
-41 c0 -2 -8 -10 -17 -17 -16 -13 -17 -12 -4 4 13 16 21 21 21 13z"/>
<path d="M1401 944 c0 -11 3 -14 6 -6 3 7 2 16 -1 19 -3 4 -6 -2 -5 -13z"/>
<path d="M1293 770 c0 -25 2 -35 4 -22 2 12 2 32 0 45 -2 12 -4 2 -4 -23z"/>
<path d="M1271 477 c-6 -6 -11 -16 -11 -22 0 -6 -11 -27 -25 -47 -28 -41 -32
-68 -12 -68 24 0 108 72 102 87 -3 8 -5 23 -5 33 0 21 -33 33 -49 17z"/>
<path d="M1566 448 c-5 -25 -1 -37 16 -56 24 -25 69 -52 88 -52 16 0 12 30
-10 60 -11 15 -24 40 -30 56 -9 22 -13 25 -20 14 -7 -11 -12 -11 -23 -2 -12
10 -16 7 -21 -20z"/>
</g>
</svg>
