<?xml version="1.0" standalone="no"?>
<!DOCTYPE svg PUBLIC "-//W3C//DTD SVG 20010904//EN"
 "http://www.w3.org/TR/2001/REC-SVG-20010904/DTD/svg10.dtd">
<svg version="1.0" xmlns="http://www.w3.org/2000/svg"
 width="251.000000pt" height="201.000000pt" viewBox="0 0 251.000000 201.000000"
 preserveAspectRatio="xMidYMid meet">

<g transform="translate(0.000000,201.000000) scale(0.100000,-0.100000)"
fill="#000000" stroke="none">
<path d="M529 1746 c-7 -14 -23 -26 -40 -30 -34 -7 -38 -22 -8 -31 15 -5 25
-2 31 9 17 30 157 8 165 -25 4 -14 14 -19 39 -19 42 0 44 14 5 30 -21 8 -31
20 -33 38 -3 23 -9 28 -48 34 -25 4 -58 10 -73 12 -22 5 -30 1 -38 -18z"/>
<path d="M1833 1438 c-14 -7 -23 -20 -23 -33 0 -23 -24 -40 -40 -30 -14 9 -44
-44 -47 -81 -3 -42 -9 -54 -30 -54 -9 0 6 -11 32 -25 37 -18 51 -21 58 -12 5
7 6 3 3 -13 -4 -14 -9 -59 -12 -101 -8 -89 15 -179 50 -202 12 -8 31 -35 44
-60 18 -37 20 -50 12 -72 -12 -33 -9 -39 19 -30 15 5 21 18 26 60 4 30 11 55
15 55 4 0 11 -20 14 -44 5 -31 11 -43 20 -40 8 3 16 -4 20 -18 9 -34 8 -38
-11 -31 -9 4 -14 2 -11 -3 3 -5 20 -78 38 -161 l33 -153 48 0 49 0 0 148 c0
81 -5 206 -11 277 -5 72 -12 158 -14 193 -5 92 -14 125 -32 118 -8 -3 -19 -6
-24 -6 -5 0 -9 -11 -9 -24 0 -13 -6 -26 -13 -29 -14 -5 -43 13 -45 28 -1 6
-27 13 -59 17 -32 5 -63 10 -70 12 -6 3 -13 -4 -16 -16 -8 -29 -42 -20 -42 12
0 23 4 25 43 27 53 2 75 10 67 23 -8 13 21 13 46 -1 16 -8 41 -2 120 28 54 21
99 42 99 46 0 5 -7 7 -15 3 -23 -8 -45 4 -45 25 0 11 7 22 15 25 23 9 -22 86
-45 79 -21 -7 -39 13 -35 38 5 28 -32 41 -76 27 -28 -10 -45 -10 -70 -1 -38
13 -47 13 -76 -1z m111 -34 c9 -3 16 -14 16 -24 0 -10 6 -20 14 -23 20 -8 27
-57 9 -64 -12 -5 -12 -7 -2 -14 17 -10 5 -23 -14 -16 -17 7 -50 67 -35 64 6
-1 13 4 16 12 2 8 0 11 -6 7 -30 -18 -56 26 -30 52 14 14 12 14 32 6z m-100
-96 c-4 -6 0 -14 7 -19 21 -14 -9 -31 -32 -18 -20 10 -19 37 1 49 17 11 33 3
24 -12z m61 14 c-2 -2 2 -17 10 -33 8 -15 15 -36 14 -46 0 -10 -7 0 -15 21 -8
21 -18 44 -24 51 -7 8 -5 12 5 12 8 0 13 -2 10 -5z m150 -20 c16 -12 16 -39 0
-46 -22 -8 -45 4 -45 23 0 29 22 40 45 23z m-85 -56 c0 -3 -4 -8 -10 -11 -5
-3 -10 -1 -10 4 0 6 5 11 10 11 6 0 10 -2 10 -4z"/>
<path d="M997 1248 c2 -5 11 -8 19 -8 8 0 14 -7 14 -15 0 -8 5 -15 10 -15 6 0
10 7 10 15 0 8 6 15 14 15 8 0 17 3 19 8 3 4 -17 7 -43 7 -26 0 -46 -3 -43 -7z"/>
<path d="M447 1113 c-4 -3 -7 -11 -7 -17 0 -6 5 -5 12 2 6 6 9 14 7 17 -3 3
-9 2 -12 -2z"/>
<path d="M449 1080 c-13 -9 -18 -54 -22 -210 l-2 -85 -78 -3 c-54 -2 -84 1
-95 10 -13 11 -15 10 -9 -5 4 -10 7 -25 7 -32 0 -8 12 -16 28 -18 l27 -4 -30
-2 c-23 -1 -27 -3 -15 -11 8 -5 10 -10 4 -10 -6 0 -10 -10 -8 -22 2 -13 6 -44
9 -71 l6 -47 69 0 69 0 5 33 c3 17 7 46 9 62 2 20 5 11 11 -30 4 -33 15 -97
25 -142 10 -46 15 -83 12 -83 -4 0 -5 -18 -3 -39 4 -38 3 -40 -43 -60 -34 -15
-46 -25 -43 -38 4 -22 40 -27 124 -18 l61 6 7 232 c3 128 10 255 14 282 l8 50
8 -75 c4 -41 16 -130 27 -198 10 -67 19 -148 19 -180 0 -81 32 -136 81 -140
52 -4 67 18 41 61 -21 37 -21 19 -7 367 7 159 -6 404 -22 420 -8 8 -280 8
-294 0z m-66 -347 c-13 -2 -33 -2 -45 0 -13 2 -3 4 22 4 25 0 35 -2 23 -4z
m104 -375 c-3 -7 -5 -2 -5 12 0 14 2 19 5 13 2 -7 2 -19 0 -25z"/>
<path d="M1776 870 c-20 -20 -14 -40 12 -40 9 0 26 -7 36 -15 46 -35 48 -11 4
38 -32 35 -33 36 -52 17z"/>
<path d="M1858 646 c-26 -17 -48 -37 -48 -44 0 -20 -41 -5 -68 26 -17 19 -21
21 -14 7 6 -11 15 -50 21 -85 6 -36 16 -91 22 -122 l12 -58 42 0 42 0 21 152
c12 84 20 153 19 154 -1 1 -23 -13 -49 -30z"/>
<path d="M1800 651 c0 -5 -9 -13 -21 -16 -11 -4 -19 -9 -16 -11 8 -8 67 18 61
27 -7 12 -24 12 -24 0z"/>
<path d="M1035 623 c-5 -15 -15 -23 -31 -23 -17 0 -22 -4 -18 -15 4 -8 1 -15
-5 -15 -18 0 -11 -98 9 -122 21 -27 86 -27 105 -1 8 10 15 27 15 39 0 11 6 26
13 33 10 11 10 13 0 7 -10 -5 -13 4 -13 33 0 39 -2 41 -29 41 -23 0 -31 5 -34
23 l-4 22 -8 -22z"/>
<path d="M1380 605 c-9 -11 -9 -19 3 -36 12 -17 13 -25 4 -41 -9 -14 -9 -20 1
-27 7 -4 12 -14 10 -22 -2 -7 7 -18 20 -24 12 -5 22 -18 22 -27 0 -13 8 -18
26 -18 24 0 25 2 19 33 -9 38 -31 85 -53 110 -8 9 -11 17 -6 17 13 0 51 -59
65 -100 16 -46 17 -47 34 -24 19 25 19 44 0 44 -11 0 -14 7 -9 25 5 22 3 25
-19 25 -20 0 -24 4 -20 20 3 13 0 20 -9 20 -7 0 -21 9 -31 20 -20 24 -40 26
-57 5z"/>
<path d="M2210 515 c-10 -13 -10 -19 5 -35 16 -18 16 -20 0 -37 -17 -16 -17
-18 4 -27 12 -5 20 -15 17 -23 -4 -8 5 -18 22 -24 24 -9 25 -12 10 -23 -13
-10 -15 -22 -10 -66 l7 -55 60 0 60 0 5 57 c5 59 -3 74 -33 62 -8 -3 -14 2
-14 10 0 8 4 13 8 11 4 -3 10 2 13 11 9 22 8 24 -10 24 -12 0 -14 7 -9 31 7
30 6 31 -17 26 -21 -6 -24 -3 -24 16 1 12 -4 21 -11 20 -7 -2 -17 6 -23 17
-13 24 -43 26 -60 5z m110 -128 c6 -22 9 -41 6 -44 -3 -3 -8 3 -11 13 -4 10
-16 39 -28 64 -31 65 -32 68 -4 35 14 -16 30 -47 37 -68z"/>
<path d="M1200 500 c0 -5 5 -10 11 -10 5 0 7 5 4 10 -3 6 -8 10 -11 10 -2 0
-4 -4 -4 -10z"/>
<path d="M820 466 c0 -2 7 -7 16 -10 8 -3 12 -2 9 4 -6 10 -25 14 -25 6z"/>
<path d="M917 433 c-14 -13 -6 -23 18 -23 16 0 25 6 25 15 0 15 -31 21 -43 8z"/>
<path d="M1126 431 c-7 -11 28 -21 54 -14 11 3 17 9 14 14 -7 12 -61 12 -68 0z"/>
<path d="M1586 412 c5 -4 12 -11 15 -15 3 -5 9 -2 12 5 3 9 -3 14 -15 15 -11
1 -16 -1 -12 -5z"/>
<path d="M1630 406 c0 -2 8 -10 18 -17 15 -13 16 -12 3 4 -13 16 -21 21 -21
13z"/>
<path d="M1540 380 c-12 -8 -12 -10 3 -16 9 -3 25 -3 34 0 15 6 15 8 3 16 -8
6 -17 10 -20 10 -3 0 -12 -4 -20 -10z"/>
<path d="M2062 303 c3 -34 7 -39 49 -57 83 -34 132 5 79 62 -22 24 -37 27 -59
13 -10 -6 -25 -4 -44 5 l-28 15 3 -38z"/>
<path d="M1723 300 c-72 -32 -54 -60 38 -60 71 0 119 22 119 54 0 29 -7 31
-45 14 -21 -9 -31 -9 -46 0 -23 15 -16 15 -66 -8z"/>
</g>
</svg>
